<mxfile host="app.diagrams.net" modified="2023-04-18T17:28:47.511Z" agent="Mozilla/5.0 (Macintosh; Intel Mac OS X 10_15_7) AppleWebKit/605.1.15 (KHTML, like Gecko) Version/15.6.1 Safari/605.1.15" etag="58LXRon57tZ4F8mz3AtH" version="21.1.8">
  <diagram name="Страница 1" id="RYWNsM2QdJI_61WNE6Wp">
    <mxGraphModel dx="954" dy="624" grid="1" gridSize="10" guides="1" tooltips="1" connect="1" arrows="1" fold="1" page="1" pageScale="1" pageWidth="827" pageHeight="1169" math="0" shadow="0">
      <root>
        <mxCell id="0" />
        <mxCell id="1" parent="0" />
        <mxCell id="jlrka9pjf7X1hLSRRNKw-6" value="" style="ellipse;whiteSpace=wrap;html=1;" vertex="1" parent="1">
          <mxGeometry x="190" y="180" width="300" height="190" as="geometry" />
        </mxCell>
        <mxCell id="jlrka9pjf7X1hLSRRNKw-3" style="edgeStyle=orthogonalEdgeStyle;rounded=0;orthogonalLoop=1;jettySize=auto;html=1;entryX=0;entryY=0.5;entryDx=0;entryDy=0;" edge="1" parent="1" source="jlrka9pjf7X1hLSRRNKw-1" target="jlrka9pjf7X1hLSRRNKw-2">
          <mxGeometry relative="1" as="geometry" />
        </mxCell>
        <mxCell id="jlrka9pjf7X1hLSRRNKw-1" value="WebController" style="rounded=0;whiteSpace=wrap;html=1;" vertex="1" parent="1">
          <mxGeometry x="40" y="40" width="120" height="60" as="geometry" />
        </mxCell>
        <mxCell id="jlrka9pjf7X1hLSRRNKw-10" style="edgeStyle=orthogonalEdgeStyle;rounded=0;orthogonalLoop=1;jettySize=auto;html=1;entryX=0.5;entryY=0;entryDx=0;entryDy=0;" edge="1" parent="1" source="jlrka9pjf7X1hLSRRNKw-2" target="jlrka9pjf7X1hLSRRNKw-8">
          <mxGeometry relative="1" as="geometry">
            <Array as="points">
              <mxPoint x="323" y="120" />
              <mxPoint x="270" y="120" />
            </Array>
          </mxGeometry>
        </mxCell>
        <mxCell id="jlrka9pjf7X1hLSRRNKw-11" style="edgeStyle=orthogonalEdgeStyle;rounded=0;orthogonalLoop=1;jettySize=auto;html=1;entryX=0.5;entryY=0;entryDx=0;entryDy=0;" edge="1" parent="1" source="jlrka9pjf7X1hLSRRNKw-2" target="jlrka9pjf7X1hLSRRNKw-9">
          <mxGeometry relative="1" as="geometry">
            <Array as="points">
              <mxPoint x="323" y="120" />
              <mxPoint x="414" y="120" />
            </Array>
          </mxGeometry>
        </mxCell>
        <mxCell id="jlrka9pjf7X1hLSRRNKw-2" value="Service" style="rounded=0;whiteSpace=wrap;html=1;" vertex="1" parent="1">
          <mxGeometry x="255" y="40" width="135" height="60" as="geometry" />
        </mxCell>
        <mxCell id="jlrka9pjf7X1hLSRRNKw-7" value="rabbitmq" style="text;html=1;align=center;verticalAlign=middle;resizable=0;points=[];autosize=1;strokeColor=none;fillColor=none;" vertex="1" parent="1">
          <mxGeometry x="305" y="150" width="70" height="30" as="geometry" />
        </mxCell>
        <mxCell id="jlrka9pjf7X1hLSRRNKw-36" style="edgeStyle=orthogonalEdgeStyle;rounded=0;orthogonalLoop=1;jettySize=auto;html=1;entryX=0.5;entryY=0;entryDx=0;entryDy=0;" edge="1" parent="1" source="jlrka9pjf7X1hLSRRNKw-8" target="jlrka9pjf7X1hLSRRNKw-15">
          <mxGeometry relative="1" as="geometry" />
        </mxCell>
        <mxCell id="jlrka9pjf7X1hLSRRNKw-38" style="edgeStyle=orthogonalEdgeStyle;rounded=0;orthogonalLoop=1;jettySize=auto;html=1;entryX=0.75;entryY=0;entryDx=0;entryDy=0;" edge="1" parent="1" source="jlrka9pjf7X1hLSRRNKw-8" target="jlrka9pjf7X1hLSRRNKw-35">
          <mxGeometry relative="1" as="geometry" />
        </mxCell>
        <mxCell id="jlrka9pjf7X1hLSRRNKw-8" value="Publish-subscribe" style="ellipse;whiteSpace=wrap;html=1;aspect=fixed;" vertex="1" parent="1">
          <mxGeometry x="210" y="215" width="120" height="120" as="geometry" />
        </mxCell>
        <mxCell id="jlrka9pjf7X1hLSRRNKw-37" style="edgeStyle=orthogonalEdgeStyle;rounded=0;orthogonalLoop=1;jettySize=auto;html=1;entryX=0.5;entryY=0;entryDx=0;entryDy=0;" edge="1" parent="1" source="jlrka9pjf7X1hLSRRNKw-9" target="jlrka9pjf7X1hLSRRNKw-17">
          <mxGeometry relative="1" as="geometry" />
        </mxCell>
        <mxCell id="jlrka9pjf7X1hLSRRNKw-9" value="Rpc" style="ellipse;whiteSpace=wrap;html=1;aspect=fixed;" vertex="1" parent="1">
          <mxGeometry x="354" y="215" width="120" height="120" as="geometry" />
        </mxCell>
        <mxCell id="jlrka9pjf7X1hLSRRNKw-12" value="emit message" style="text;html=1;align=center;verticalAlign=middle;resizable=0;points=[];autosize=1;strokeColor=none;fillColor=none;" vertex="1" parent="1">
          <mxGeometry x="230" y="130" width="100" height="30" as="geometry" />
        </mxCell>
        <mxCell id="jlrka9pjf7X1hLSRRNKw-13" value="rpc call" style="text;html=1;align=center;verticalAlign=middle;resizable=0;points=[];autosize=1;strokeColor=none;fillColor=none;" vertex="1" parent="1">
          <mxGeometry x="384" y="138" width="60" height="30" as="geometry" />
        </mxCell>
        <mxCell id="jlrka9pjf7X1hLSRRNKw-40" style="edgeStyle=orthogonalEdgeStyle;rounded=0;orthogonalLoop=1;jettySize=auto;html=1;entryX=0.5;entryY=0;entryDx=0;entryDy=0;" edge="1" parent="1" source="jlrka9pjf7X1hLSRRNKw-15" target="jlrka9pjf7X1hLSRRNKw-19">
          <mxGeometry relative="1" as="geometry" />
        </mxCell>
        <mxCell id="jlrka9pjf7X1hLSRRNKw-15" value="MessageController" style="rounded=0;whiteSpace=wrap;html=1;" vertex="1" parent="1">
          <mxGeometry x="270" y="410" width="120" height="60" as="geometry" />
        </mxCell>
        <mxCell id="jlrka9pjf7X1hLSRRNKw-21" style="edgeStyle=orthogonalEdgeStyle;rounded=0;orthogonalLoop=1;jettySize=auto;html=1;entryX=1;entryY=0.5;entryDx=0;entryDy=0;" edge="1" parent="1" source="jlrka9pjf7X1hLSRRNKw-17" target="jlrka9pjf7X1hLSRRNKw-19">
          <mxGeometry relative="1" as="geometry">
            <Array as="points">
              <mxPoint x="470" y="530" />
            </Array>
          </mxGeometry>
        </mxCell>
        <mxCell id="jlrka9pjf7X1hLSRRNKw-17" value="RpcController" style="rounded=0;whiteSpace=wrap;html=1;" vertex="1" parent="1">
          <mxGeometry x="414" y="410" width="120" height="60" as="geometry" />
        </mxCell>
        <mxCell id="jlrka9pjf7X1hLSRRNKw-32" style="edgeStyle=orthogonalEdgeStyle;rounded=0;orthogonalLoop=1;jettySize=auto;html=1;entryX=0;entryY=0.5;entryDx=0;entryDy=0;" edge="1" parent="1" source="jlrka9pjf7X1hLSRRNKw-19" target="jlrka9pjf7X1hLSRRNKw-24">
          <mxGeometry relative="1" as="geometry">
            <Array as="points">
              <mxPoint x="470" y="540" />
              <mxPoint x="470" y="540" />
            </Array>
          </mxGeometry>
        </mxCell>
        <mxCell id="jlrka9pjf7X1hLSRRNKw-33" style="edgeStyle=orthogonalEdgeStyle;rounded=0;orthogonalLoop=1;jettySize=auto;html=1;entryX=0.5;entryY=0;entryDx=0;entryDy=0;" edge="1" parent="1" source="jlrka9pjf7X1hLSRRNKw-19" target="jlrka9pjf7X1hLSRRNKw-26">
          <mxGeometry relative="1" as="geometry">
            <Array as="points">
              <mxPoint x="200" y="540" />
            </Array>
          </mxGeometry>
        </mxCell>
        <mxCell id="jlrka9pjf7X1hLSRRNKw-34" style="edgeStyle=orthogonalEdgeStyle;rounded=0;orthogonalLoop=1;jettySize=auto;html=1;" edge="1" parent="1" source="jlrka9pjf7X1hLSRRNKw-19" target="jlrka9pjf7X1hLSRRNKw-28">
          <mxGeometry relative="1" as="geometry" />
        </mxCell>
        <mxCell id="jlrka9pjf7X1hLSRRNKw-19" value="DomainService" style="rounded=0;whiteSpace=wrap;html=1;" vertex="1" parent="1">
          <mxGeometry x="270" y="500" width="120" height="60" as="geometry" />
        </mxCell>
        <mxCell id="jlrka9pjf7X1hLSRRNKw-31" style="edgeStyle=orthogonalEdgeStyle;rounded=0;orthogonalLoop=1;jettySize=auto;html=1;entryX=0.992;entryY=0.442;entryDx=0;entryDy=0;entryPerimeter=0;" edge="1" parent="1" source="jlrka9pjf7X1hLSRRNKw-24" target="jlrka9pjf7X1hLSRRNKw-9">
          <mxGeometry relative="1" as="geometry">
            <Array as="points">
              <mxPoint x="620" y="268" />
            </Array>
          </mxGeometry>
        </mxCell>
        <mxCell id="jlrka9pjf7X1hLSRRNKw-24" value="other Proxies of microservices" style="rounded=0;whiteSpace=wrap;html=1;" vertex="1" parent="1">
          <mxGeometry x="560" y="510" width="120" height="60" as="geometry" />
        </mxCell>
        <mxCell id="jlrka9pjf7X1hLSRRNKw-26" value="DomainRepository" style="rounded=0;whiteSpace=wrap;html=1;" vertex="1" parent="1">
          <mxGeometry x="140" y="570" width="120" height="60" as="geometry" />
        </mxCell>
        <mxCell id="jlrka9pjf7X1hLSRRNKw-28" value="DomainMapper" style="rounded=0;whiteSpace=wrap;html=1;" vertex="1" parent="1">
          <mxGeometry x="270" y="590" width="120" height="60" as="geometry" />
        </mxCell>
        <mxCell id="jlrka9pjf7X1hLSRRNKw-39" style="edgeStyle=orthogonalEdgeStyle;rounded=0;orthogonalLoop=1;jettySize=auto;html=1;entryX=0;entryY=0.25;entryDx=0;entryDy=0;" edge="1" parent="1" source="jlrka9pjf7X1hLSRRNKw-35" target="jlrka9pjf7X1hLSRRNKw-19">
          <mxGeometry relative="1" as="geometry">
            <Array as="points">
              <mxPoint x="160" y="440" />
              <mxPoint x="160" y="515" />
            </Array>
          </mxGeometry>
        </mxCell>
        <mxCell id="jlrka9pjf7X1hLSRRNKw-41" style="edgeStyle=orthogonalEdgeStyle;rounded=0;orthogonalLoop=1;jettySize=auto;html=1;entryX=0;entryY=0.383;entryDx=0;entryDy=0;entryPerimeter=0;" edge="1" parent="1" source="jlrka9pjf7X1hLSRRNKw-35" target="jlrka9pjf7X1hLSRRNKw-8">
          <mxGeometry relative="1" as="geometry">
            <Array as="points">
              <mxPoint x="90" y="261" />
            </Array>
          </mxGeometry>
        </mxCell>
        <mxCell id="jlrka9pjf7X1hLSRRNKw-35" value="Saga" style="rounded=0;whiteSpace=wrap;html=1;" vertex="1" parent="1">
          <mxGeometry x="20" y="410" width="120" height="60" as="geometry" />
        </mxCell>
      </root>
    </mxGraphModel>
  </diagram>
</mxfile>
